<?xml version="1.0" encoding="UTF-8" standalone="no"?>
<svg
   xmlns:dc="http://purl.org/dc/elements/1.1/"
   xmlns:cc="http://creativecommons.org/ns#"
   xmlns:rdf="http://www.w3.org/1999/02/22-rdf-syntax-ns#"
   xmlns:svg="http://www.w3.org/2000/svg"
   xmlns="http://www.w3.org/2000/svg"
   xmlns:sodipodi="http://sodipodi.sourceforge.net/DTD/sodipodi-0.dtd"
   xmlns:inkscape="http://www.inkscape.org/namespaces/inkscape"
   viewBox="0 0 36 25.337791"
   version="1.1"
   id="svg3909"
   sodipodi:docname="1f6b2.svg"
   inkscape:version="0.92.4 (5da689c313, 2019-01-14)"
   width="36"
   height="25.337791"
   inkscape:export-filename="/home/ppasupat/passcodes-28/img/emoji/h3.png"
   inkscape:export-xdpi="598.63147"
   inkscape:export-ydpi="598.63147">
  <metadata
     id="metadata3915">
    <rdf:RDF>
      <cc:Work
         rdf:about="">
        <dc:format>image/svg+xml</dc:format>
        <dc:type
           rdf:resource="http://purl.org/dc/dcmitype/StillImage" />
        <dc:title></dc:title>
      </cc:Work>
    </rdf:RDF>
  </metadata>
  <defs
     id="defs3913" />
  <sodipodi:namedview
     pagecolor="#ffffff"
     bordercolor="#666666"
     borderopacity="1"
     objecttolerance="10"
     gridtolerance="10"
     guidetolerance="10"
     inkscape:pageopacity="0"
     inkscape:pageshadow="2"
     inkscape:window-width="3000"
     inkscape:window-height="1840"
     id="namedview3911"
     showgrid="false"
     inkscape:zoom="32"
     inkscape:cx="7.8661682"
     inkscape:cy="15.292105"
     inkscape:window-x="0"
     inkscape:window-y="80"
     inkscape:window-maximized="1"
     inkscape:current-layer="svg3909"
     fit-margin-top="0"
     fit-margin-left="0"
     fit-margin-right="0"
     fit-margin-bottom="0" />
  <path
     style="fill:#b3b3b3;fill-opacity:1"
     d="m 6.9160156,9.337791 c -1.301,0 -2.5334375,0.285109 -3.6484375,0.787109 l 0.8378907,1.845703 C 4.9885657,11.568423 5.9663304,11.337791 7,11.337791 c 0.7765461,0 1.5208297,0.131922 2.21875,0.365234 0.074272,-0.117061 0.4784133,-0.758144 0.908203,-1.74414 C 9.1287881,9.570431 8.0523434,9.337791 6.9160156,9.337791 Z m 22.0000004,0 c -1.395433,0 -2.710237,0.329741 -3.884766,0.902344 l 1.095703,1.720703 C 27.004415,11.564799 27.974995,11.337791 29,11.337791 c 2.053351,0 3.893553,0.889205 5.173828,2.296875 l 1.41211,-1.283203 c -1.633002,-1.844 -4.012922,-3.013672 -6.669922,-3.013672 z m -17.021485,1.539062 c -0.371196,0.835716 -0.69949,1.408462 -0.890625,1.72461 0.951527,0.665447 1.723053,1.56482 2.248047,2.609375 l 1.679688,-0.839844 c -0.687693,-1.416818 -1.744442,-2.616529 -3.03711,-3.494141 z m 11.455078,0.441407 c -1.056404,0.851679 -1.924455,1.92651 -2.505859,3.169922 l 1.837891,0.867187 c 0.420591,-0.892592 1.017736,-1.685418 1.757812,-2.322266 z M 7,13.337791 c -0.1841517,0 -0.3659239,0.01185 -0.5449219,0.03125 C 6.6339175,13.348616 6.8155,13.337791 7,13.337791 Z m -0.5449219,0.03125 c -0.1782084,0.01932 -0.3513451,0.0523 -0.5234375,0.08984 0.1713002,-0.03878 0.3458855,-0.06957 0.5234375,-0.08984 z M 29,13.337791 c 0.180086,0 0.358432,0.01043 0.533203,0.0293 -0.175199,-0.01857 -0.35307,-0.0293 -0.533203,-0.0293 z m 0.605469,0.03906 c 0.150026,0.01848 0.297952,0.04254 0.443359,0.07422 -0.145704,-0.03113 -0.293249,-0.05609 -0.443359,-0.07422 z M 5.2441406,13.671775 c -0.1038007,0.03912 -0.2062592,0.07735 -0.3066406,0.123047 0.099955,-0.04542 0.2035399,-0.08371 0.3066406,-0.123047 z m 25.5507814,0.01172 c 0.08158,0.03208 0.164724,0.06143 0.24414,0.09766 -0.08011,-0.0359 -0.161862,-0.06591 -0.24414,-0.09766 z m 0.802734,0.400391 c 0.113661,0.07052 0.226496,0.141605 0.333985,0.220703 -0.108252,-0.07886 -0.219398,-0.150566 -0.333985,-0.220703 z m -21.523437,0.33789 c 0.572125,0.455484 1.049179,1.026964 1.380859,1.6875 l 0.0059,-0.0039 c -0.335495,-0.656555 -0.810732,-1.2306 -1.386759,-1.683601 z m 22.271484,0.22461 c 0.11742,0.107002 0.230715,0.218597 0.337891,0.335937 -0.107448,-0.117895 -0.219726,-0.22878 -0.337891,-0.335937 z m -6.814453,0.101562 c -0.428397,0.41394 -0.774278,0.906943 -1.035156,1.449219 0.25854,-0.541398 0.618755,-1.021525 1.042968,-1.435547 z"
     id="path3895"
     inkscape:connector-curvature="0" />
  <path
     d="m 7,11.337791 c -3.866,0 -7,3.134 -7,7 0,3.866 3.134,7 7,7 3.866,0 7,-3.134 7,-7 0,-2.376681 -1.187288,-4.472983 -2.998047,-5.738281 -0.03125,0.05048 -0.113596,0.204736 -0.132812,0.234375 l -0.794922,1.58789 C 11.238183,15.337142 12,16.741763 12,18.337791 c 0,2.762 -2.238,5 -5,5 -2.761,0 -5,-2.238 -5,-5 0,-2.762 2.239,-5 5,-5 0.4508946,0 0.8793486,0.0795 1.2949219,0.191406 l 0.875,-1.74414 c 7.104e-4,-0.0012 0.042108,-0.0715 0.048828,-0.08203 C 8.5208297,11.469713 7.7765461,11.337791 7,11.337791 Z m 22,0 c -1.025005,0 -1.995585,0.227008 -2.873047,0.623047 l 1.09375,1.71875 C 27.775373,13.467412 28.370787,13.337791 29,13.337791 c 2.762,0 5,2.238 5,5 0,2.762 -2.238,5 -5,5 -2.418632,0 -4.437095,-1.717418 -4.900391,-4 h -2.019531 c 0.486835,3.390636 3.395538,6 6.919922,6 3.867,0 7,-3.134 7,-7 0,-3.866 -3.133,-7 -7,-7 z m -4.560547,1.695312 c -1.252335,1.077654 -2.113325,2.591034 -2.359375,4.304688 h 2.019531 c 0.204781,-1.008922 0.719016,-1.901268 1.431641,-2.589844 z"
     id="path3897"
     inkscape:connector-curvature="0" />
  <path
     style="fill:#ff5555"
     d="m 8.1835938,1.886619 c 0.1187243,0.177485 0.2816665,0.327474 0.5,0.400391 C 8.7065937,2.29501 11,3.095791 11,6.337791 c 0,2.651 -1.8130781,5.419266 -1.8300781,5.447266 l -3.0625,6.105468 c -0.247,0.494 -0.046734,1.094797 0.4472656,1.341797 0.143,0.071 0.2953125,0.105469 0.4453125,0.105469 0.367,0 0.7195313,-0.202687 0.8945312,-0.554688 l 2.9746098,-5.949218 c 0.194516,-0.300016 1.052765,-1.702828 1.61914,-3.498047 h 7.664063 c -0.609253,1.705778 -0.98044,2.746101 -1.470703,4.119141 -0.256722,0.718979 3.603326,-10.081611 -0.769532,2.15625 L 17.640625,16.3749 C 17.757758,16.35351 17.876721,16.33779 18,16.33779 c 0.612352,0 1.152736,0.281609 1.519531,0.714844 l 2.689453,-7.525391 4.96875,7.810547 H 19.722656 C 19.89472,17.633182 20,17.971457 20,18.33779 c 0,0.366333 -0.10528,0.704608 -0.277344,1 h 9.279297 c 0.116,0 0.228797,-0.02736 0.341797,-0.06836 0.034,-0.013 0.06466,-0.02697 0.09766,-0.04297 0.031,-0.017 0.0647,-0.02492 0.0957,-0.04492 0.03,-0.02 0.04917,-0.05127 0.07617,-0.07227 0.055,-0.044 0.102485,-0.08858 0.146485,-0.142578 0.041,-0.049 0.07352,-0.0993 0.103515,-0.154297 0.03,-0.056 0.05617,-0.109875 0.07617,-0.171875 0.021,-0.066 0.03206,-0.13217 0.03906,-0.201172 0.004,-0.036 0.02149,-0.06556 0.02149,-0.101558 0,-0.027 -0.01363,-0.05112 -0.01563,-0.07813 -0.005,-0.067 -0.02202,-0.131266 -0.04102,-0.197266 -0.019,-0.065 -0.03931,-0.1275 -0.07031,-0.1875 -0.013,-0.024 -0.0153,-0.05122 -0.0293,-0.07422 L 23.060537,7.142472 23.476552,5.980362 21.441396,5.726456 c -0.137564,0.385686 -0.420414,1.178771 -0.574218,1.609375 h -7.9375 C 12.969196,7.005692 13,6.673359 13,6.337791 13,4.682204 12.553215,3.465463 11.972656,2.574119 L 8.4472656,1.986229 C 8.3506716,1.970069 8.2675574,1.927309 8.1835938,1.886619 Z"
     id="path3899"
     inkscape:connector-curvature="0" />
  <path
     d="m 14.612,3.000791 c -0.054,0 -0.11,-0.004 -0.165,-0.014 l -6,-1 c -0.544,-0.091 -0.913,-0.606 -0.822,-1.15100005 0.091,-0.544 0.601,-0.913 1.151,-0.822 l 6,1.00000005 c 0.544,0.091 0.913,0.606 0.822,1.151 -0.082,0.489 -0.506,0.836 -0.986,0.836 z m 11.771,3.337 c -0.03,0 -0.059,-0.002 -0.089,-0.006 l -5.672,-0.708 c -0.372,-0.046 -0.644,-0.374 -0.62,-0.748 0.023,-0.374 0.333,-0.665 0.707,-0.665 0.041,0 4.067,-0.018 5.989,-1.299 0.25,-0.167 0.582,-0.157 0.824,0.026 0.239,0.185 0.337,0.501 0.241,0.788 l -0.709,2.127 c -0.096,0.293 -0.369,0.485 -0.671,0.485 z"
     id="path3905"
     inkscape:connector-curvature="0"
     style="fill:#292f33" />
  <path
     d="m 20,18.337791 c 0,1.104 -0.895,2 -2,2 -1.104,0 -2,-0.896 -2,-2 0,-1.104 0.896,-2 2,-2 1.105,0 2,0.896 2,2 z"
     id="path3907"
     style="fill:#b3b3b3;fill-opacity:1"
     inkscape:connector-curvature="0" />
</svg>
